<?xml version="1.0" standalone="no"?>
<!DOCTYPE svg PUBLIC "-//W3C//DTD SVG 20010904//EN"
 "http://www.w3.org/TR/2001/REC-SVG-20010904/DTD/svg10.dtd">
<svg version="1.0" xmlns="http://www.w3.org/2000/svg"
 width="16.000000pt" height="16.000000pt" viewBox="0 0 16.000000 16.000000"
 preserveAspectRatio="xMidYMid meet">
<metadata>
Created by potrace 1.11, written by Peter Selinger 2001-2013
</metadata>
<g transform="translate(0.000000,16.000000) scale(0.012500,-0.012500)"
fill="#000000" stroke="none">
<path d="M612 1247 c-21 -23 -22 -30 -22 -290 l0 -267 -268 0 -269 0 -23 -25
-23 -25 316 0 317 0 0 315 c0 173 -1 315 -3 315 -2 0 -13 -10 -25 -23z"/>
<path d="M1252 1247 c-21 -23 -22 -30 -22 -290 l0 -267 -268 0 -269 0 -23 -25
-23 -25 316 0 317 0 0 315 c0 173 -1 315 -3 315 -2 0 -13 -10 -25 -23z"/>
<path d="M612 607 c-21 -23 -22 -30 -22 -290 l0 -267 -268 0 -269 0 -23 -25
-23 -25 316 0 317 0 0 315 c0 173 -1 315 -3 315 -2 0 -13 -10 -25 -23z"/>
<path d="M863 543 c-18 -3 -23 -11 -23 -35 0 -22 4 -29 14 -25 82 32 134 27
156 -12 17 -33 -9 -78 -94 -161 -50 -49 -76 -82 -76 -97 0 -23 2 -23 115 -23
108 0 115 1 115 20 0 18 -7 20 -81 20 l-81 0 65 72 c35 40 69 83 76 95 19 36
13 89 -13 119 -20 24 -31 28 -87 30 -35 1 -74 0 -86 -3z"/>
<path d="M194 518 c3 -13 6 -94 6 -180 0 -151 1 -158 20 -158 18 0 20 7 20 65
0 80 7 84 90 56 118 -41 130 -33 130 80 l0 89 -34 0 c-29 0 -111 29 -168 61
-10 5 -30 9 -44 9 -22 0 -25 -3 -20 -22z m148 -53 c29 -14 63 -25 76 -25 21 0
22 -4 22 -65 l0 -65 -33 0 c-18 0 -59 9 -90 20 -32 11 -62 18 -68 15 -5 -4 -9
24 -9 69 0 74 1 76 24 76 13 0 48 -11 78 -25z"/>
</g>
</svg>
